<?xml version="1.0" standalone="no"?>
<!DOCTYPE svg PUBLIC "-//W3C//DTD SVG 20010904//EN"
 "http://www.w3.org/TR/2001/REC-SVG-20010904/DTD/svg10.dtd">
<svg version="1.0" xmlns="http://www.w3.org/2000/svg"
 width="912.000000pt" height="912.000000pt" viewBox="0 0 912.000000 912.000000"
 preserveAspectRatio="xMidYMid meet">
<metadata>
Created by potrace 1.14, written by Peter Selinger 2001-2017
</metadata>
<g transform="translate(0.000000,912.000000) scale(0.100000,-0.100000)"
fill="#000000" stroke="none">
<path d="M495 6533 c-200 -42 -375 -166 -425 -301 -26 -69 -26 -160 0 -423 53
-534 103 -895 154 -1120 19 -85 69 -323 111 -529 120 -594 188 -832 306 -1079
211 -441 554 -719 999 -811 190 -40 407 -18 592 59 245 102 515 356 756 709
164 242 280 450 585 1052 287 566 357 680 499 816 117 112 208 154 332 154
181 0 281 -122 321 -390 7 -52 19 -180 25 -284 54 -946 339 -1601 796 -1830
300 -150 675 -110 1002 108 284 189 612 569 943 1091 173 272 412 628 495 735
115 148 343 377 464 467 173 129 348 213 551 268 48 13 93 26 99 30 18 11 11
71 -12 101 -37 48 -59 61 -133 83 -122 36 -200 44 -354 38 -164 -6 -262 -28
-411 -92 -309 -133 -595 -377 -1051 -901 -224 -257 -431 -486 -509 -563 -178
-175 -336 -249 -510 -239 -89 6 -140 29 -193 87 -103 114 -140 294 -157 770
-15 410 -34 545 -104 756 -152 454 -462 730 -922 822 -135 26 -409 24 -579 -6
-363 -64 -627 -209 -910 -502 -242 -251 -393 -480 -745 -1129 -235 -434 -283
-516 -360 -619 -78 -103 -146 -163 -239 -209 -83 -41 -180 -54 -245 -32 -84
27 -175 164 -236 355 -89 280 -134 614 -210 1570 -52 650 -60 695 -128 801
-86 133 -239 205 -437 203 -49 0 -121 -7 -160 -16z"/>
</g>
</svg>
