<?xml version="1.0" encoding="UTF-8" standalone="no"?>
<!DOCTYPE svg PUBLIC "-//W3C//DTD SVG 1.1//EN" "http://www.w3.org/Graphics/SVG/1.1/DTD/svg11.dtd">
<svg width="100%" height="100%" viewBox="0 0 114 55" version="1.1" xmlns="http://www.w3.org/2000/svg" xmlns:xlink="http://www.w3.org/1999/xlink" xml:space="preserve" xmlns:serif="http://www.serif.com/" style="fill-rule:evenodd;clip-rule:evenodd;stroke-linejoin:round;stroke-miterlimit:2;">
    <g id="mask-icon">
        <path d="M0.567,6.08C0.251,0.163 13.409,-2.682 14.555,5.418C14.979,8.416 15.561,17.795 15.851,20.016C16.132,22.17 16.851,37.238 21.64,37.238C25.859,37.238 28.267,32.05 29.76,29.352C34.75,20.331 40.013,8.236 51.327,6.08C64.516,3.567 71.596,11.443 72,23.016C72.202,28.802 72,35.623 75.845,36.273C80.217,37.011 83.201,33.036 85.711,30.306C92.412,23.016 100.66,10.654 112.486,14.476C113.642,14.85 114.564,16.54 113.351,16.795C111.825,17.116 109.9,17.8 108.533,18.495C105.441,20.069 102.894,22.538 100.66,25.152C93.886,33.077 86.119,52.345 73.415,51.433C63.196,50.699 60.229,37.588 59.505,29.28C59.201,25.786 59.744,18.57 54.582,19.009C49.774,19.417 46.626,27.396 44.801,30.904C39.402,41.279 32.031,58.077 18.466,53.41C5.642,48.999 5.623,35.108 2.631,23.016C1.934,20.197 0.731,9.145 0.567,6.08Z" style="fill-rule:nonzero;"/>
    </g>
</svg>
