<?xml version="1.0" encoding="UTF-8" standalone="no"?>
<!DOCTYPE svg PUBLIC "-//W3C//DTD SVG 1.1//EN" "http://www.w3.org/Graphics/SVG/1.1/DTD/svg11.dtd">
<svg width="100%" height="100%" viewBox="0 0 79 48" version="1.1" xmlns="http://www.w3.org/2000/svg" xmlns:xlink="http://www.w3.org/1999/xlink" xml:space="preserve" xmlns:serif="http://www.serif.com/" style="fill-rule:evenodd;clip-rule:evenodd;stroke-linejoin:round;stroke-miterlimit:2;">
    <g id="icon-decrease">
        <path d="M4.391,7.34L75.29,7.34C77.292,7.34 78.805,5.777 78.805,3.824C78.805,1.822 77.292,0.26 75.29,0.26L4.391,0.26C2.438,0.26 0.876,1.822 0.876,3.824C0.876,5.777 2.438,7.34 4.391,7.34ZM12.057,27.262L67.868,27.262C69.821,27.262 71.383,25.699 71.383,23.746C71.383,21.793 69.821,20.231 67.868,20.231L12.057,20.231C10.104,20.231 8.542,21.793 8.542,23.746C8.542,25.699 10.104,27.262 12.057,27.262ZM19.528,47.232L60.397,47.232C62.35,47.232 63.913,45.67 63.913,43.668C63.913,41.715 62.35,40.152 60.397,40.152L19.528,40.152C17.575,40.152 16.012,41.715 16.012,43.668C16.012,45.67 17.575,47.232 19.528,47.232Z" style="fill-rule:nonzero;"/>
    </g>
</svg>
