<?xml version="1.0" encoding="UTF-8" standalone="no"?>
<!DOCTYPE svg PUBLIC "-//W3C//DTD SVG 1.1//EN" "http://www.w3.org/Graphics/SVG/1.1/DTD/svg11.dtd">
<svg width="100%" height="100%" viewBox="0 0 80 80" version="1.1" xmlns="http://www.w3.org/2000/svg" xmlns:xlink="http://www.w3.org/1999/xlink" xml:space="preserve" xmlns:serif="http://www.serif.com/" style="fill-rule:evenodd;clip-rule:evenodd;stroke-linejoin:round;stroke-miterlimit:2;">
    <g id="icon-plus">
        <path d="M39.82,79.15C18.336,79.15 0.416,61.279 0.416,39.746C0.416,18.213 18.287,0.342 39.771,0.342C61.305,0.342 79.273,18.213 79.273,39.746C79.273,61.279 61.353,79.15 39.82,79.15ZM20.728,39.795C20.728,42.041 22.34,43.555 24.635,43.555L36.06,43.555L36.06,54.981C36.06,57.227 37.525,58.838 39.771,58.838C42.066,58.838 43.629,57.275 43.629,54.981L43.629,43.555L55.103,43.555C57.349,43.555 58.961,42.041 58.961,39.795C58.961,37.5 57.349,35.938 55.103,35.938L43.629,35.938L43.629,24.512C43.629,22.217 42.066,20.654 39.771,20.654C37.525,20.654 36.06,22.217 36.06,24.512L36.06,35.938L24.635,35.938C22.34,35.938 20.728,37.5 20.728,39.795Z"/>
    </g>
</svg>
