<?xml version="1.0" encoding="UTF-8" standalone="no"?>
<!DOCTYPE svg PUBLIC "-//W3C//DTD SVG 1.1//EN" "http://www.w3.org/Graphics/SVG/1.1/DTD/svg11.dtd">
<svg width="100%" height="100%" viewBox="0 0 78 77" version="1.1" xmlns="http://www.w3.org/2000/svg" xmlns:xlink="http://www.w3.org/1999/xlink" xml:space="preserve" xmlns:serif="http://www.serif.com/" style="fill-rule:evenodd;clip-rule:evenodd;stroke-linejoin:round;stroke-miterlimit:2;">
    <g id="icon-edit">
        <path d="M13.18,76.323L58.346,76.323C65.28,76.323 69.43,72.27 69.43,64.067L69.43,23.1L62.35,30.131L62.35,63.676C62.35,67.387 60.348,69.291 58.248,69.291L13.278,69.291C9.762,69.291 7.809,67.387 7.809,63.676L7.809,20.317C7.809,16.606 9.762,14.701 13.278,14.701L47.36,14.701L54.391,7.67L13.18,7.67C4.928,7.67 0.729,11.723 0.729,19.926L0.729,64.067C0.729,72.27 4.928,76.323 13.18,76.323Z" style="fill-rule:nonzero;"/>
        <path d="M26.51,51.86L34.518,48.442L70.26,12.7L64.498,7.084L28.805,42.778L25.192,50.492C24.85,51.225 25.68,52.201 26.51,51.86ZM73.239,9.721L76.168,6.742C77.487,5.326 77.487,3.276 76.168,1.957L75.094,0.883C73.825,-0.386 71.774,-0.24 70.504,1.078L67.526,4.008L73.239,9.721Z" style="fill-rule:nonzero;"/>
    </g>
</svg>
