<?xml version="1.0" encoding="UTF-8" standalone="no"?>
<!DOCTYPE svg PUBLIC "-//W3C//DTD SVG 1.1//EN" "http://www.w3.org/Graphics/SVG/1.1/DTD/svg11.dtd">
<svg width="100%" height="100%" viewBox="0 0 88 93" version="1.1" xmlns="http://www.w3.org/2000/svg" xmlns:xlink="http://www.w3.org/1999/xlink" xml:space="preserve" xmlns:serif="http://www.serif.com/" style="fill-rule:evenodd;clip-rule:evenodd;stroke-linejoin:round;stroke-miterlimit:2;">
    <g id="icon-expand">
        <path d="M11.474,72.381L24.315,72.381L24.315,65.789L12.499,65.789C9.276,65.789 7.421,63.738 7.421,60.906L7.421,31.902C7.421,29.07 9.276,27.02 12.499,27.02L24.315,27.02L24.315,20.428L11.474,20.428C4.979,20.428 0.487,24.822 0.487,30.828L0.487,61.981C0.487,67.938 4.979,72.381 11.474,72.381ZM76.952,72.381C83.446,72.381 87.938,67.938 87.938,61.981L87.938,30.828C87.938,24.822 83.446,20.428 76.952,20.428L64.11,20.428L64.11,27.02L75.927,27.02C79.149,27.02 81.005,29.07 81.005,31.902L81.005,60.906C81.005,63.738 79.149,65.789 75.927,65.789L64.11,65.789L64.11,72.381L76.952,72.381Z" style="fill-rule:nonzero;"/>
        <path d="M44.188,31.072C46.093,31.072 47.704,29.51 47.704,27.654L47.704,15.789L47.411,9.783L49.657,12.176L54.833,17.352C55.468,17.986 56.298,18.377 57.177,18.377C58.983,18.377 60.351,17.107 60.351,15.301C60.351,14.373 60.009,13.592 59.325,12.957L46.728,1.434C45.8,0.603 45.116,0.262 44.188,0.262C43.31,0.262 42.626,0.603 41.698,1.434L29.101,12.957C28.417,13.592 28.075,14.373 28.075,15.301C28.075,17.107 29.394,18.377 31.2,18.377C32.079,18.377 32.958,17.986 33.593,17.352L38.769,12.176L41.015,9.783L40.722,15.789L40.722,27.654C40.722,29.51 42.333,31.072 44.188,31.072ZM44.188,92.547C45.116,92.547 45.8,92.205 46.728,91.375L59.325,79.803C60.009,79.217 60.351,78.436 60.351,77.508C60.351,75.701 59.032,74.432 57.226,74.432C56.347,74.432 55.468,74.822 54.833,75.457L49.657,80.633L47.411,83.025L47.704,77.02L47.704,65.106C47.704,63.299 46.093,61.736 44.188,61.736C42.333,61.736 40.722,63.299 40.722,65.106L40.722,77.02L41.015,83.025L38.769,80.633L33.593,75.457C32.958,74.822 32.128,74.432 31.249,74.432C29.442,74.432 28.075,75.701 28.075,77.508C28.075,78.436 28.417,79.217 29.101,79.803L41.698,91.375C42.626,92.205 43.31,92.547 44.188,92.547Z" style="fill-rule:nonzero;"/>
    </g>
</svg>
