<?xml version="1.0" encoding="UTF-8" standalone="no"?>
<!DOCTYPE svg PUBLIC "-//W3C//DTD SVG 1.1//EN" "http://www.w3.org/Graphics/SVG/1.1/DTD/svg11.dtd">
<svg width="100%" height="100%" viewBox="0 0 80 80" version="1.1" xmlns="http://www.w3.org/2000/svg" xmlns:xlink="http://www.w3.org/1999/xlink" xml:space="preserve" xmlns:serif="http://www.serif.com/" style="fill-rule:evenodd;clip-rule:evenodd;stroke-linejoin:round;stroke-miterlimit:2;">
    <g id="icon-warning-circle">
        <path d="M39.82,79.33C61.353,79.33 79.273,61.459 79.273,39.926C79.273,18.393 61.305,0.521 39.771,0.521C18.287,0.521 0.416,18.393 0.416,39.926C0.416,61.459 18.336,79.33 39.82,79.33ZM39.82,71.908C22.096,71.908 7.935,57.699 7.935,39.926C7.935,22.152 22.047,7.943 39.771,7.943C57.545,7.943 71.803,22.152 71.803,39.926C71.803,57.699 57.594,71.908 39.82,71.908Z" style="fill-rule:nonzero;"/>
        <path d="M39.771,46.859C41.871,46.859 43.043,45.687 43.092,43.49L43.726,23.471C43.726,21.273 42.017,19.662 39.723,19.662C37.428,19.662 35.767,21.225 35.816,23.422L36.402,43.49C36.451,45.687 37.623,46.859 39.771,46.859ZM39.771,59.652C42.164,59.652 44.264,57.748 44.264,55.355C44.264,52.914 42.213,51.059 39.771,51.059C37.379,51.059 35.328,52.963 35.328,55.355C35.328,57.699 37.428,59.652 39.771,59.652Z" style="fill-rule:nonzero;"/>
    </g>
</svg>
