<?xml version="1.0" encoding="UTF-8" standalone="no"?>
<!DOCTYPE svg PUBLIC "-//W3C//DTD SVG 1.1//EN" "http://www.w3.org/Graphics/SVG/1.1/DTD/svg11.dtd">
<svg width="100%" height="100%" viewBox="0 0 80 80" version="1.1" xmlns="http://www.w3.org/2000/svg" xmlns:xlink="http://www.w3.org/1999/xlink" xml:space="preserve" xmlns:serif="http://www.serif.com/" style="fill-rule:evenodd;clip-rule:evenodd;stroke-linejoin:round;stroke-miterlimit:2;">
    <g id="icon-cross-circle">
        <path d="M40.047,79.33C61.58,79.33 79.5,61.459 79.5,39.926C79.5,18.393 61.531,0.521 39.998,0.521C18.514,0.521 0.643,18.393 0.643,39.926C0.643,61.459 18.562,79.33 40.047,79.33ZM40.047,71.908C22.322,71.908 8.162,57.699 8.162,39.926C8.162,22.152 22.273,7.943 39.998,7.943C57.771,7.943 72.029,22.152 72.029,39.926C72.029,57.699 57.82,71.908 40.047,71.908Z" style="fill-rule:nonzero;"/>
        <path d="M27.156,56.332C28.133,56.332 29.012,55.99 29.598,55.307L39.998,44.857L50.447,55.307C51.082,55.941 51.912,56.332 52.937,56.332C54.842,56.332 56.404,54.769 56.404,52.816C56.404,51.84 56.014,51.059 55.379,50.375L44.978,39.975L55.428,29.477C56.111,28.793 56.453,28.012 56.453,27.084C56.453,25.131 54.891,23.617 52.986,23.617C52.059,23.617 51.326,23.91 50.594,24.643L39.998,35.141L29.549,24.691C28.914,24.008 28.133,23.666 27.156,23.666C25.252,23.666 23.689,25.18 23.689,27.133C23.689,28.061 24.08,28.891 24.715,29.525L35.115,39.975L24.715,50.424C24.08,51.059 23.689,51.889 23.689,52.816C23.689,54.769 25.252,56.332 27.156,56.332Z" style="fill-rule:nonzero;"/>
    </g>
</svg>
