<?xml version="1.0" encoding="UTF-8" standalone="no"?>
<!DOCTYPE svg PUBLIC "-//W3C//DTD SVG 1.1//EN" "http://www.w3.org/Graphics/SVG/1.1/DTD/svg11.dtd">
<svg width="100%" height="100%" viewBox="0 0 70 88" version="1.1" xmlns="http://www.w3.org/2000/svg" xmlns:xlink="http://www.w3.org/1999/xlink" xml:space="preserve" xmlns:serif="http://www.serif.com/" style="fill-rule:evenodd;clip-rule:evenodd;stroke-linejoin:round;stroke-miterlimit:2;">
    <g id="icon-share">
        <path d="M12.947,87.746L56.746,87.746C65.095,87.746 69.197,83.645 69.197,75.441L69.197,37.893C69.197,29.689 65.095,25.588 56.746,25.588L46.248,25.588L46.248,32.668L56.648,32.668C60.115,32.668 62.165,34.572 62.165,38.234L62.165,75.1C62.165,78.811 60.115,80.666 56.648,80.666L13.044,80.666C9.529,80.666 7.527,78.811 7.527,75.1L7.527,38.234C7.527,34.572 9.529,32.668 13.044,32.668L23.445,32.668L23.445,25.588L12.947,25.588C4.646,25.588 0.496,29.689 0.496,37.893L0.496,75.441C0.496,83.645 4.646,87.746 12.947,87.746Z" style="fill-rule:nonzero;"/>
        <path d="M34.822,57.473C36.726,57.473 38.337,55.91 38.337,54.055L38.337,15.969L38.044,10.109L40.095,12.355L45.466,18.166C46.101,18.85 46.98,19.191 47.81,19.191C49.665,19.191 51.033,17.922 51.033,16.164C51.033,15.188 50.642,14.504 49.958,13.869L37.361,1.809C36.482,0.93 35.749,0.637 34.822,0.637C33.943,0.637 33.21,0.93 32.283,1.809L19.685,13.869C19.05,14.504 18.66,15.188 18.66,16.164C18.66,17.922 19.978,19.191 21.833,19.191C22.664,19.191 23.591,18.85 24.226,18.166L29.597,12.355L31.648,10.109L31.355,15.969L31.355,54.055C31.355,55.91 32.966,57.473 34.822,57.473Z" style="fill-rule:nonzero;"/>
    </g>
</svg>
