<?xml version="1.0" encoding="UTF-8" standalone="no"?>
<!DOCTYPE svg PUBLIC "-//W3C//DTD SVG 1.1//EN" "http://www.w3.org/Graphics/SVG/1.1/DTD/svg11.dtd">
<svg width="100%" height="100%" viewBox="0 0 82 81" version="1.1" xmlns="http://www.w3.org/2000/svg" xmlns:xlink="http://www.w3.org/1999/xlink" xml:space="preserve" xmlns:serif="http://www.serif.com/" style="fill-rule:evenodd;clip-rule:evenodd;stroke-linejoin:round;stroke-miterlimit:2;">
    <g id="icon-gear">
        <path d="M37.405,80.932L44.289,80.932C46.243,80.932 47.707,79.76 48.147,77.855L50.149,69.311C51.76,68.773 53.274,68.187 54.641,67.504L62.112,72.094C63.674,73.07 65.578,72.924 66.897,71.605L71.731,66.771C73.049,65.453 73.244,63.451 72.17,61.84L67.629,54.418C68.313,53.051 68.948,51.537 69.387,50.121L78.03,48.07C79.885,47.68 81.008,46.215 81.008,44.213L81.008,37.475C81.008,35.57 79.885,34.105 78.03,33.715L69.485,31.615C68.948,29.955 68.264,28.49 67.727,27.269L72.268,19.701C73.293,18.09 73.196,16.234 71.828,14.867L66.897,10.033C65.53,8.812 63.869,8.568 62.258,9.447L54.641,14.135C53.323,13.451 51.809,12.865 50.149,12.328L48.147,3.637C47.707,1.732 46.243,0.56 44.289,0.56L37.405,0.56C35.452,0.56 33.987,1.732 33.596,3.637L31.545,12.23C29.983,12.768 28.371,13.353 27.053,14.086L19.485,9.447C17.825,8.568 16.164,8.764 14.797,10.033L9.866,14.867C8.498,16.234 8.401,18.09 9.426,19.701L13.967,27.269C13.43,28.49 12.746,29.955 12.258,31.615L3.713,33.715C1.809,34.105 0.686,35.57 0.686,37.475L0.686,44.213C0.686,46.215 1.809,47.68 3.713,48.07L12.356,50.121C12.746,51.537 13.381,53.051 14.065,54.418L9.524,61.84C8.45,63.451 8.645,65.453 9.963,66.771L14.797,71.605C16.116,72.924 18.02,73.07 19.631,72.094L27.102,67.504C28.42,68.187 29.983,68.773 31.545,69.311L33.596,77.855C33.987,79.76 35.452,80.932 37.405,80.932ZM40.871,54.174C33.45,54.174 27.444,48.07 27.444,40.697C27.444,33.373 33.45,27.318 40.871,27.318C48.244,27.318 54.25,33.373 54.25,40.697C54.25,48.07 48.244,54.174 40.871,54.174Z" style="fill-rule:nonzero;"/>
    </g>
</svg>
