<?xml version="1.0" encoding="UTF-8" standalone="no"?>
<!DOCTYPE svg PUBLIC "-//W3C//DTD SVG 1.1//EN" "http://www.w3.org/Graphics/SVG/1.1/DTD/svg11.dtd">
<svg width="100%" height="100%" viewBox="0 0 80 80" version="1.1" xmlns="http://www.w3.org/2000/svg" xmlns:xlink="http://www.w3.org/1999/xlink" xml:space="preserve" xmlns:serif="http://www.serif.com/" style="fill-rule:evenodd;clip-rule:evenodd;stroke-linejoin:round;stroke-miterlimit:2;">
    <g id="icon-check-circle">
        <path d="M39.82,79.33C61.353,79.33 79.273,61.459 79.273,39.926C79.273,18.393 61.305,0.521 39.771,0.521C18.287,0.521 0.416,18.393 0.416,39.926C0.416,61.459 18.336,79.33 39.82,79.33ZM39.82,71.908C22.096,71.908 7.935,57.699 7.935,39.926C7.935,22.152 22.047,7.943 39.771,7.943C57.545,7.943 71.803,22.152 71.803,39.926C71.803,57.699 57.594,71.908 39.82,71.908Z" style="fill-rule:nonzero;"/>
        <path d="M35.621,58.09C37.037,58.09 38.258,57.406 39.137,56.039L55.933,29.477C56.471,28.598 57.008,27.621 57.008,26.644C57.008,24.691 55.299,23.471 53.443,23.471C52.32,23.471 51.246,24.105 50.416,25.424L35.426,49.74L28.687,40.658C27.613,39.242 26.637,38.9 25.465,38.9C23.56,38.9 22.096,40.414 22.096,42.367C22.096,43.295 22.486,44.223 23.072,45.053L31.861,56.039C32.984,57.504 34.156,58.09 35.621,58.09Z" style="fill-rule:nonzero;"/>
    </g>
</svg>
