<?xml version="1.0" encoding="UTF-8" standalone="no"?>
<!DOCTYPE svg PUBLIC "-//W3C//DTD SVG 1.1//EN" "http://www.w3.org/Graphics/SVG/1.1/DTD/svg11.dtd">
<svg width="100%" height="100%" viewBox="0 0 80 80" version="1.1" xmlns="http://www.w3.org/2000/svg" xmlns:xlink="http://www.w3.org/1999/xlink" xml:space="preserve" xmlns:serif="http://www.serif.com/" style="fill-rule:evenodd;clip-rule:evenodd;stroke-linejoin:round;stroke-miterlimit:2;">
    <g id="icon-info">
        <path d="M39.82,79.15C61.353,79.15 79.273,61.279 79.273,39.746C79.273,18.213 61.305,0.342 39.771,0.342C18.287,0.342 0.416,18.213 0.416,39.746C0.416,61.279 18.336,79.15 39.82,79.15Z" style="fill-rule:nonzero;"/>
        <path d="M32.984,62.256C31.129,62.256 29.713,60.938 29.713,59.033C29.713,57.324 31.129,55.908 32.984,55.908L37.428,55.908L37.428,39.209L33.717,39.209C31.959,39.209 30.494,37.891 30.494,35.986C30.494,34.277 31.959,32.861 33.717,32.861L41.139,32.861C43.433,32.861 44.654,34.522 44.654,36.963L44.654,55.908L49.098,55.908C50.904,55.908 52.369,57.324 52.369,59.033C52.369,60.938 50.904,62.256 49.098,62.256L32.984,62.256ZM39.43,26.709C36.256,26.709 33.717,24.121 33.717,20.947C33.717,17.725 36.256,15.234 39.43,15.234C42.603,15.234 45.045,17.725 45.045,20.947C45.045,24.121 42.603,26.709 39.43,26.709Z" style="fill:white;fill-rule:nonzero;"/>
    </g>
</svg>
