<svg xmlns="http://www.w3.org/2000/svg" height="24" viewBox="0 -960 960 960" width="24"><path d="M277.37-111.869q-37.783 0-64.392-26.609-26.609-26.609-26.609-64.392v-514.5q-19.152 0-32.326-13.173-13.174-13.174-13.174-32.327 0-19.152 13.174-32.326t32.326-13.174h168.37q0-19.152 13.174-32.326t32.326-13.174h159.522q19.152 0 32.326 13.174t13.174 32.326h168.37q19.152 0 32.326 13.174t13.174 32.326q0 19.153-13.174 32.327-13.174 13.173-32.326 13.173v514.5q0 37.783-26.609 64.392-26.609 26.609-64.392 26.609H277.37Zm0-605.501v514.5h405.26v-514.5H277.37Zm78.326 394.5q0 17.957 12.337 30.294t30.293 12.337q17.957 0 30.413-12.337 12.457-12.337 12.457-30.294v-274.5q0-17.956-12.457-30.413-12.456-12.456-30.413-12.456-17.956 0-30.293 12.456-12.337 12.457-12.337 30.413v274.5Zm163.108 0q0 17.957 12.457 30.294 12.456 12.337 30.413 12.337 17.956 0 30.293-12.337t12.337-30.294v-274.5q0-17.956-12.337-30.413-12.337-12.456-30.293-12.456-17.957 0-30.413 12.456-12.457 12.457-12.457 30.413v274.5ZM277.37-717.37v514.5-514.5Z"/></svg>