<?xml version="1.0" encoding="UTF-8" standalone="no"?>
<!DOCTYPE svg PUBLIC "-//W3C//DTD SVG 1.1//EN" "http://www.w3.org/Graphics/SVG/1.1/DTD/svg11.dtd">
<svg width="100%" height="100%" viewBox="0 0 76 87" version="1.1" xmlns="http://www.w3.org/2000/svg" xmlns:xlink="http://www.w3.org/1999/xlink" xml:space="preserve" xmlns:serif="http://www.serif.com/" style="fill-rule:evenodd;clip-rule:evenodd;stroke-linejoin:round;stroke-miterlimit:2;">
    <g id="icon-delete">
        <path d="M20.217,86.33L55.52,86.33C61.33,86.33 65.09,82.717 65.383,76.857L67.922,21.389L60.94,21.389L58.498,76.125C58.401,78.322 56.936,79.787 54.787,79.787L20.852,79.787C18.801,79.787 17.287,78.273 17.19,76.125L14.602,21.389L7.766,21.389L10.354,76.906C10.647,82.766 14.309,86.33 20.217,86.33ZM3.762,22.121L71.926,22.121C73.733,22.121 75.149,20.656 75.149,18.85C75.149,17.043 73.684,15.578 71.926,15.578L3.762,15.578C2.053,15.578 0.539,17.043 0.539,18.85C0.539,20.656 2.053,22.121 3.762,22.121ZM20.803,18.654L27.737,18.654L27.737,10.451C27.737,8.449 29.153,7.131 31.203,7.131L44.436,7.131C46.438,7.131 47.854,8.449 47.854,10.451L47.854,18.654L54.836,18.654L54.836,9.963C54.836,4.201 51.076,0.637 44.924,0.637L30.666,0.637C24.563,0.637 20.803,4.201 20.803,9.963L20.803,18.654ZM37.844,73.732C39.504,73.732 40.627,72.707 40.627,71.193L40.627,31.154C40.627,29.641 39.504,28.615 37.844,28.615C36.184,28.615 35.061,29.641 35.061,31.154L35.061,71.193C35.061,72.707 36.184,73.732 37.844,73.732ZM49.172,73.732C50.686,73.732 51.809,72.756 51.858,71.193L52.932,31.154C52.981,29.641 51.907,28.615 50.246,28.615C48.684,28.615 47.61,29.641 47.561,31.154L46.487,71.193C46.438,72.707 47.512,73.732 49.172,73.732ZM26.565,73.732C28.225,73.732 29.299,72.707 29.25,71.193L28.127,31.154C28.078,29.592 27.004,28.615 25.442,28.615C23.83,28.615 22.707,29.641 22.756,31.154L23.879,71.193C23.928,72.756 25.002,73.732 26.565,73.732Z" style="fill-rule:nonzero;"/>
    </g>
</svg>
