<?xml version="1.0" encoding="UTF-8" standalone="no"?>
<!DOCTYPE svg PUBLIC "-//W3C//DTD SVG 1.1//EN" "http://www.w3.org/Graphics/SVG/1.1/DTD/svg11.dtd">
<svg width="100%" height="100%" viewBox="0 0 67 68" version="1.1" xmlns="http://www.w3.org/2000/svg" xmlns:xlink="http://www.w3.org/1999/xlink" xml:space="preserve" xmlns:serif="http://www.serif.com/" style="fill-rule:evenodd;clip-rule:evenodd;stroke-linejoin:round;stroke-miterlimit:2;">
    <g id="icon-cross-thick">
        <path d="M2.75,64.708C6.022,67.98 11.735,67.833 14.713,64.855L33.512,46.056L52.213,64.806C55.387,67.98 60.904,67.931 64.176,64.66C67.447,61.388 67.496,55.871 64.322,52.697L45.621,33.947L64.322,15.246C67.496,12.072 67.447,6.554 64.176,3.283C60.904,0.011 55.387,-0.038 52.213,3.136L33.512,21.837L14.713,3.087C11.735,0.109 6.022,-0.038 2.75,3.234C-0.521,6.505 -0.375,12.218 2.604,15.197L21.403,33.947L2.604,52.746C-0.375,55.724 -0.521,61.437 2.75,64.708Z" style="fill-rule:nonzero;"/>
    </g>
</svg>
