<?xml version="1.0" encoding="UTF-8" standalone="no"?>
<!DOCTYPE svg PUBLIC "-//W3C//DTD SVG 1.1//EN" "http://www.w3.org/Graphics/SVG/1.1/DTD/svg11.dtd">
<svg width="100%" height="100%" viewBox="0 0 69 39" version="1.1" xmlns="http://www.w3.org/2000/svg" xmlns:xlink="http://www.w3.org/1999/xlink" xml:space="preserve" xmlns:serif="http://www.serif.com/" style="fill-rule:evenodd;clip-rule:evenodd;stroke-linejoin:round;stroke-miterlimit:2;">
    <g id="icon-arrow-down">
        <path d="M34.352,38.5C35.427,38.5 36.501,38.109 37.233,37.279L67.214,7.104C67.946,6.371 68.386,5.395 68.386,4.272C68.386,1.977 66.677,0.219 64.382,0.219C63.307,0.219 62.233,0.707 61.501,1.391L32.057,30.932L36.599,30.932L7.155,1.391C6.423,0.707 5.446,0.219 4.323,0.219C2.028,0.219 0.27,1.977 0.27,4.272C0.27,5.395 0.71,6.371 1.442,7.104L31.472,37.279C32.253,38.109 33.229,38.5 34.352,38.5Z" style="fill-rule:nonzero;"/>
    </g>
</svg>
