<?xml version="1.0" encoding="UTF-8" standalone="no"?>
<!DOCTYPE svg PUBLIC "-//W3C//DTD SVG 1.1//EN" "http://www.w3.org/Graphics/SVG/1.1/DTD/svg11.dtd">
<svg width="100%" height="100%" viewBox="0 0 86 57" version="1.1" xmlns="http://www.w3.org/2000/svg" xmlns:xlink="http://www.w3.org/1999/xlink" xml:space="preserve" xmlns:serif="http://www.serif.com/" style="fill-rule:evenodd;clip-rule:evenodd;stroke-linejoin:round;stroke-miterlimit:2;">
    <g id="icon-more">
        <path d="M0.316,44.491C0.316,52.157 4.466,56.112 12.132,56.112L73.558,56.112C81.273,56.112 85.374,52.157 85.374,44.491L85.374,12.46C85.374,4.794 81.273,0.888 73.558,0.888L12.132,0.888C4.466,0.888 0.316,4.794 0.316,12.46L0.316,44.491ZM7.347,44.833L7.347,12.118C7.347,9.14 9.056,7.431 12.034,7.431L73.656,7.431C76.683,7.431 78.343,9.14 78.343,12.118L78.343,44.833C78.343,47.811 76.683,49.52 73.656,49.52L12.034,49.52C9.056,49.52 7.347,47.811 7.347,44.833Z" style="fill-rule:nonzero;"/>
        <path d="M23.607,34.237C26.781,34.237 29.368,31.649 29.368,28.476C29.368,25.302 26.781,22.714 23.607,22.714C20.433,22.714 17.845,25.302 17.845,28.476C17.845,31.649 20.433,34.237 23.607,34.237Z" style="fill-rule:nonzero;"/>
        <path d="M42.894,34.237C46.068,34.237 48.656,31.649 48.656,28.476C48.656,25.302 46.068,22.714 42.894,22.714C39.72,22.714 37.132,25.302 37.132,28.476C37.132,31.649 39.72,34.237 42.894,34.237Z" style="fill-rule:nonzero;"/>
        <path d="M62.132,34.237C65.306,34.237 67.894,31.649 67.894,28.476C67.894,25.302 65.306,22.714 62.132,22.714C58.958,22.714 56.37,25.302 56.37,28.476C56.37,31.649 58.958,34.237 62.132,34.237Z" style="fill-rule:nonzero;"/>
    </g>
</svg>
