<?xml version="1.0" encoding="UTF-8" standalone="no"?>
<!DOCTYPE svg PUBLIC "-//W3C//DTD SVG 1.1//EN" "http://www.w3.org/Graphics/SVG/1.1/DTD/svg11.dtd">
<svg width="100%" height="100%" viewBox="0 0 80 79" version="1.1" xmlns="http://www.w3.org/2000/svg" xmlns:xlink="http://www.w3.org/1999/xlink" xml:space="preserve" xmlns:serif="http://www.serif.com/" style="fill-rule:evenodd;clip-rule:evenodd;stroke-linejoin:round;stroke-miterlimit:2;">
    <g id="icon-plus-circle">
        <path d="M40.249,78.888C61.782,78.888 79.702,61.017 79.702,39.483C79.702,17.95 61.733,0.079 40.2,0.079C18.716,0.079 0.845,17.95 0.845,39.483C0.845,61.017 18.765,78.888 40.249,78.888ZM40.249,71.466C22.524,71.466 8.364,57.257 8.364,39.483C8.364,21.71 22.476,7.501 40.2,7.501C57.974,7.501 72.231,21.71 72.231,39.483C72.231,57.257 58.022,71.466 40.249,71.466Z" style="fill-rule:nonzero;"/>
        <path d="M22.28,39.483C22.28,41.632 23.794,43.097 26.04,43.097L36.538,43.097L36.538,53.692C36.538,55.89 38.003,57.403 40.151,57.403C42.397,57.403 43.862,55.89 43.862,53.692L43.862,43.097L54.458,43.097C56.655,43.097 58.169,41.632 58.169,39.483C58.169,37.286 56.655,35.773 54.458,35.773L43.862,35.773L43.862,25.226C43.862,22.98 42.397,21.466 40.151,21.466C38.003,21.466 36.538,22.98 36.538,25.226L36.538,35.773L26.04,35.773C23.794,35.773 22.28,37.286 22.28,39.483Z" style="fill-rule:nonzero;"/>
    </g>
</svg>
