<?xml version="1.0" encoding="UTF-8" standalone="no"?>
<!DOCTYPE svg PUBLIC "-//W3C//DTD SVG 1.1//EN" "http://www.w3.org/Graphics/SVG/1.1/DTD/svg11.dtd">
<svg width="100%" height="100%" viewBox="0 0 85 72" version="1.1" xmlns="http://www.w3.org/2000/svg" xmlns:xlink="http://www.w3.org/1999/xlink" xml:space="preserve" xmlns:serif="http://www.serif.com/" style="fill-rule:evenodd;clip-rule:evenodd;stroke-linejoin:round;stroke-miterlimit:2;">
    <g id="icon-share">
        <path d="M46.331,71.1C48.382,71.1 50.042,70.27 52.093,68.365L82.366,39.703C83.733,38.434 84.221,36.871 84.221,35.553C84.221,34.186 83.733,32.672 82.366,31.354L52.093,3.033C49.798,0.885 48.479,0.006 46.428,0.006C43.499,0.006 41.399,2.35 41.399,5.133L41.399,19.098L40.423,19.098C11.956,19.098 0.774,37.75 0.774,65.436C0.774,69.098 2.874,71.1 5.071,71.1C6.78,71.1 8.782,70.758 10.247,68.121C17.229,55.524 26.311,52.008 40.423,52.008L41.399,52.008L41.399,66.266C41.399,69.049 43.499,71.1 46.331,71.1ZM48.919,61.578C48.626,61.578 48.43,61.383 48.43,61.09L48.43,46.783C48.43,45.856 47.991,45.416 47.063,45.416L41.399,45.416C23.479,45.416 11.858,51.959 7.464,60.846C7.366,61.09 7.317,61.139 7.171,61.139C7.073,61.139 6.975,61.041 6.975,60.797C7.903,45.026 14.446,25.641 41.399,25.641L47.063,25.641C47.991,25.641 48.43,25.201 48.43,24.322L48.43,9.625C48.43,9.332 48.626,9.137 48.919,9.137C49.163,9.137 49.358,9.235 49.505,9.381L76.165,35.162C76.311,35.309 76.36,35.406 76.36,35.553C76.36,35.699 76.311,35.797 76.165,35.944L49.505,61.334C49.309,61.481 49.114,61.578 48.919,61.578Z" style="fill-rule:nonzero;"/>
    </g>
</svg>
