<?xml version="1.0" encoding="UTF-8" standalone="no"?>
<!DOCTYPE svg PUBLIC "-//W3C//DTD SVG 1.1//EN" "http://www.w3.org/Graphics/SVG/1.1/DTD/svg11.dtd">
<svg width="100%" height="100%" viewBox="0 0 68 67" version="1.1" xmlns="http://www.w3.org/2000/svg" xmlns:xlink="http://www.w3.org/1999/xlink" xml:space="preserve" xmlns:serif="http://www.serif.com/" style="fill-rule:evenodd;clip-rule:evenodd;stroke-linejoin:round;stroke-miterlimit:2;">
    <g id="icon-check">
        <path d="M26.302,66.557C28.206,66.557 29.72,65.727 30.794,64.066L66.39,7.768C67.22,6.498 67.513,5.473 67.513,4.447C67.513,2.055 65.95,0.443 63.509,0.443C61.751,0.443 60.774,1.029 59.7,2.738L26.106,56.645L8.431,32.816C7.308,31.303 6.233,30.668 4.622,30.668C2.181,30.668 0.423,32.377 0.423,34.818C0.423,35.844 0.862,36.967 1.692,38.041L21.663,63.969C23.03,65.727 24.397,66.557 26.302,66.557Z" style="fill-rule:nonzero;"/>
    </g>
</svg>
