<?xml version="1.0" encoding="UTF-8" standalone="no"?>
<!DOCTYPE svg PUBLIC "-//W3C//DTD SVG 1.1//EN" "http://www.w3.org/Graphics/SVG/1.1/DTD/svg11.dtd">
<svg width="100%" height="100%" viewBox="0 0 80 80" version="1.1" xmlns="http://www.w3.org/2000/svg" xmlns:xlink="http://www.w3.org/1999/xlink" xml:space="preserve" xmlns:serif="http://www.serif.com/" style="fill-rule:evenodd;clip-rule:evenodd;stroke-linejoin:round;stroke-miterlimit:2;">
    <g id="icon-more-circle">
        <path d="M40.047,79.547C61.58,79.547 79.5,61.676 79.5,40.143C79.5,18.609 61.531,0.738 39.998,0.738C18.514,0.738 0.643,18.609 0.643,40.143C0.643,61.676 18.562,79.547 40.047,79.547ZM40.047,72.125C22.322,72.125 8.162,57.916 8.162,40.143C8.162,22.369 22.273,8.16 39.998,8.16C57.771,8.16 72.029,22.369 72.029,40.143C72.029,57.916 57.82,72.125 40.047,72.125Z" style="fill-rule:nonzero;"/>
        <path d="M22.029,45.904C25.203,45.904 27.84,43.316 27.84,40.143C27.84,36.969 25.203,34.332 22.029,34.332C18.855,34.332 16.267,36.969 16.267,40.143C16.267,43.316 18.855,45.904 22.029,45.904Z" style="fill-rule:nonzero;"/>
        <path d="M39.998,45.904C43.221,45.904 45.809,43.316 45.809,40.143C45.809,36.969 43.221,34.332 39.998,34.332C36.824,34.332 34.236,36.969 34.236,40.143C34.236,43.316 36.824,45.904 39.998,45.904Z" style="fill-rule:nonzero;"/>
        <path d="M58.016,45.904C61.189,45.904 63.777,43.316 63.777,40.143C63.777,36.969 61.189,34.332 58.016,34.332C54.793,34.332 52.205,36.969 52.205,40.143C52.205,43.316 54.793,45.904 58.016,45.904Z" style="fill-rule:nonzero;"/>
    </g>
</svg>
