<?xml version="1.0" encoding="UTF-8" standalone="no"?>
<!DOCTYPE svg PUBLIC "-//W3C//DTD SVG 1.1//EN" "http://www.w3.org/Graphics/SVG/1.1/DTD/svg11.dtd">
<svg width="100%" height="100%" viewBox="0 0 84 97" version="1.1" xmlns="http://www.w3.org/2000/svg" xmlns:xlink="http://www.w3.org/1999/xlink" xml:space="preserve" xmlns:serif="http://www.serif.com/" style="fill-rule:evenodd;clip-rule:evenodd;stroke-linejoin:round;stroke-miterlimit:2;">
    <g id="icon-shrink">
        <path d="M11.302,61.049L72.386,61.049C78.929,61.049 83.372,56.654 83.372,50.648L83.372,46.303C83.372,40.346 78.929,35.902 72.386,35.902L11.302,35.902C4.808,35.902 0.316,40.346 0.316,46.303L0.316,50.648C0.316,56.654 4.808,61.049 11.302,61.049ZM12.327,54.457C9.105,54.457 7.249,52.406 7.249,49.574L7.249,47.426C7.249,44.594 9.105,42.494 12.327,42.494L71.409,42.494C74.583,42.494 76.439,44.594 76.439,47.426L76.439,49.574C76.439,52.406 74.583,54.457 71.409,54.457L12.327,54.457Z" style="fill-rule:nonzero;"/>
        <path d="M41.868,96.547C43.724,96.547 45.335,94.984 45.335,93.129L45.335,81.215L45.042,75.258L47.288,77.65L52.464,82.777C53.099,83.461 53.978,83.852 54.808,83.852C56.663,83.852 57.982,82.582 57.982,80.775C57.982,79.799 57.64,79.066 56.956,78.432L44.407,66.908C43.431,66.078 42.747,65.736 41.868,65.736C40.941,65.736 40.257,66.078 39.329,66.908L26.781,78.432C26.048,79.066 25.706,79.799 25.706,80.775C25.706,82.582 27.025,83.852 28.88,83.852C29.71,83.852 30.589,83.461 31.273,82.777L36.4,77.65L38.646,75.258L38.402,81.215L38.402,93.129C38.402,94.984 39.964,96.547 41.868,96.547ZM41.868,31.264C42.747,31.264 43.431,30.922 44.407,30.092L56.956,18.52C57.64,17.934 57.982,17.152 57.982,16.225C57.982,14.418 56.663,13.148 54.808,13.148C53.978,13.148 53.099,13.539 52.464,14.174L47.288,19.35L45.042,21.742L45.335,15.736L45.335,3.822C45.335,2.016 43.724,0.453 41.868,0.453C39.964,0.453 38.402,2.016 38.402,3.822L38.402,15.736L38.646,21.742L36.4,19.35L31.273,14.174C30.589,13.539 29.71,13.148 28.88,13.148C27.025,13.148 25.706,14.418 25.706,16.225C25.706,17.152 26.048,17.934 26.781,18.52L39.329,30.092C40.257,30.922 40.941,31.264 41.868,31.264Z" style="fill-rule:nonzero;"/>
    </g>
</svg>
