<svg xmlns="http://www.w3.org/2000/svg" height="24" viewBox="0 -960 960 960" width="24"><path d="M202.152-199.761h52.174l342.609-342.848-52.174-52.173-342.609 342.847v52.174ZM772.957-600.37 601.761-769.804l54.565-54.805q23.957-23.956 58.652-24.195 34.696-.239 59.609 24.195l52.652 52.413q24.913 24.435 25.196 58.25.282 33.816-23.674 57.772l-55.804 55.804ZM163.826-116.174q-19.152 0-32.326-13.174t-13.174-32.326v-106.543q0-9.196 3.478-17.653 3.479-8.456 10.196-15.173l411.761-411.761 171.435 171.195-411.761 411.761q-6.718 6.718-15.294 10.196-8.576 3.478-17.771 3.478H163.826Zm407.261-452.522-26.326-26.086 52.174 52.173-25.848-26.087Z"/></svg>