<?xml version="1.0" encoding="UTF-8" standalone="no"?>
<!DOCTYPE svg PUBLIC "-//W3C//DTD SVG 1.1//EN" "http://www.w3.org/Graphics/SVG/1.1/DTD/svg11.dtd">
<svg width="100%" height="100%" viewBox="0 0 80 80" version="1.1" xmlns="http://www.w3.org/2000/svg" xmlns:xlink="http://www.w3.org/1999/xlink" xml:space="preserve" xmlns:serif="http://www.serif.com/" style="fill-rule:evenodd;clip-rule:evenodd;stroke-linejoin:round;stroke-miterlimit:2;">
    <g id="icon-cross-circle-solid">
        <path d="M39.904,79.15C18.42,79.15 0.5,61.279 0.5,39.746C0.5,18.213 18.371,0.342 39.855,0.342C61.389,0.342 79.357,18.213 79.357,39.746C79.357,61.279 61.437,79.15 39.904,79.15ZM27.062,56.25C28.088,56.25 29.016,55.908 29.65,55.225L39.904,44.873L50.207,55.225C50.842,55.908 51.77,56.25 52.746,56.25C54.797,56.25 56.408,54.639 56.408,52.588C56.408,51.611 56.066,50.732 55.334,50.049L45.031,39.795L55.383,29.443C56.164,28.711 56.457,27.881 56.457,26.904C56.457,24.902 54.846,23.34 52.844,23.34C51.916,23.34 51.135,23.682 50.402,24.365L39.904,34.766L29.553,24.414C28.869,23.779 28.088,23.438 27.062,23.438C25.109,23.438 23.498,24.951 23.498,27.002C23.498,27.93 23.889,28.809 24.523,29.492L34.826,39.795L24.523,50.098C23.889,50.781 23.498,51.66 23.498,52.588C23.498,54.639 25.109,56.25 27.062,56.25Z"/>
    </g>
</svg>
